<?xml version="1.0" encoding="utf-8"?>
<!-- Designed by Vexels.com - 2021 All Rights Reserved - https://vexels.com/terms-and-conditions/  -->
<svg version="1.1" id="Capa_1" xmlns="http://www.w3.org/2000/svg" xmlns:xlink="http://www.w3.org/1999/xlink" x="0px" y="0px"
	 viewBox="0 0 1200 1200" enable-background="new 0 0 1200 1200" xml:space="preserve">
<g>
	<g>
		<circle fill="#F1AA2F" cx="608.677" cy="603.919" r="396.41"/>
		<circle fill="#1C110A" cx="571.688" cy="847.813" r="72.249"/>
		<circle fill="#1C110A" cx="427.88" cy="326.556" r="31.404"/>
		<circle fill="#FFFFFF" cx="729.716" cy="885.116" r="31.404"/>
		<g>
			<circle fill="#FFFFFF" cx="573.71" cy="357.961" r="79.824"/>
			<path fill="#1C110A" d="M777.095,309.786l-13.532-10.157l-16.268-9.942l-12.592,3.954c-5.959,1.87-32.99,6.405-61.505,10.328
				l-0.343,0.057c-100.55,15.507-159.363,48.878-190.997,74.144c-15.125,12.052-25.742,23.51-32.981,32.726
				c-16.752-7.788-37.272-11.729-61.207-11.729c-45.606,0-103.381,14.13-171.753,41.973c-28.701,11.686-72.986,33.49-89.053,41.55
				l-5.213,110.977l245.391,329.316l383.666-133.464l60.591-20.498l297.004-149.349l6.193-33.681L777.095,309.786z M416.312,823.186
				l-250.38-324.724c41.411-20.674,142.612-67.12,215.822-67.12c24.726,0,43.719,5.578,56.444,16.594l4.475,3.885l270.58,282.061
				c-27.223-1.471-105.101,3.437-164.624,27.805L416.312,823.186z M762.357,730.301L477.1,432.606
				c4.683-7.27,14.264-19.758,31.551-33.547c26.783-21.382,77.308-49.724,166.018-63.432l0.083-0.019
				c9.553-1.327,38.07-5.388,56.501-9.052l313.888,265.228c-26.844,7.049-65.813,18.311-106.804,33.598
				c-43.873,16.385-81.534,34.166-111.94,52.844C799.446,694.808,777.967,712.254,762.357,730.301z"/>
			<path fill="#FFFFFF" d="M416.312,823.186l-250.38-324.724c41.411-20.674,142.612-67.12,215.822-67.12
				c24.726,0,43.719,5.578,56.444,16.594l4.475,3.885l270.58,282.061c-27.223-1.471-105.101,3.437-164.624,27.805L416.312,823.186z"
				/>
			<path fill="#FFFFFF" d="M762.357,730.301L477.1,432.606c4.683-7.27,14.264-19.758,31.551-33.547
				c26.783-21.382,77.308-49.724,166.018-63.432l0.083-0.019c9.553-1.327,38.07-5.388,56.501-9.052l313.888,265.228
				c-26.844,7.049-65.813,18.311-106.804,33.598c-43.873,16.385-81.534,34.166-111.94,52.844
				C799.446,694.808,777.967,712.254,762.357,730.301z"/>
		</g>
	</g>
	<circle fill="#81BA6E" cx="1051.396" cy="324.34" r="78.58"/>
	<g>
		<g>
			<path fill="#020102" d="M104.614,752.599C89.485,703.432,81.832,652.306,81.832,600c0-70.06,13.714-138.008,40.762-201.957
				c26.132-61.783,63.549-117.275,111.21-164.937s103.155-85.078,164.937-111.21c63.949-27.048,131.897-40.763,201.957-40.763
				s138.008,13.714,201.957,40.763c61.783,26.132,117.276,63.549,164.937,111.21c5.85,5.85,11.542,11.821,17.081,17.904
				c7.575-6.896,16.235-12.611,25.675-16.911C909.762,121.561,763.516,50.7,600.699,50.7c-303.37,0-549.3,245.93-549.3,549.301
				c0,58.495,9.178,114.839,26.113,167.712C85.87,761.672,94.95,756.578,104.614,752.599z"/>
			<path fill="#020102" d="M1113.149,401.873c-8.006,6.385-17.014,11.558-26.762,15.237c22.001,58.33,33.18,119.747,33.18,182.89
				c0,70.06-13.715,138.008-40.763,201.957c-26.132,61.783-63.549,117.275-111.21,164.937s-103.155,85.078-164.937,111.21
				c-63.949,27.048-131.897,40.762-201.957,40.762s-138.008-13.714-201.957-40.762c-58.244-24.635-110.891-59.309-156.663-103.131
				c-7.786,6.796-16.366,12.696-25.595,17.539c99.057,96.976,234.641,156.787,384.216,156.787C904.07,1149.3,1150,903.37,1150,600
				C1150,530.14,1136.93,463.34,1113.149,401.873z"/>
		</g>
		<circle fill="#3B78B7" cx="155.016" cy="875.144" r="105.016"/>
	</g>
</g>
</svg>
